<?xml version="1.0" encoding="UTF-8"?>
<svg width="169px" height="56px" viewBox="0 0 169 56" version="1.1" xmlns="http://www.w3.org/2000/svg" xmlns:xlink="http://www.w3.org/1999/xlink">
    <!-- Generator: Sketch 43.1 (39012) - http://www.bohemiancoding.com/sketch -->
    <title>Tools logo white</title>
    <desc>Created with Sketch.</desc>
    <defs></defs>
    <g id="Page-1" stroke="none" stroke-width="1" fill="none" fill-rule="evenodd">
        <g id="White-Logos" transform="translate(-130.000000, -25.000000)" fill="#FFFFFF">
            <g id="Tools-logo-white" transform="translate(130.000000, 25.000000)">
                <g id="tools" fill-rule="nonzero">
                    <path d="M23,0 C10.3247217,0 0.0506650943,10.3586875 0.0506650943,23.1364219 C0.0506650943,40.707625 23,56 23,56 C23,56 45.9493349,40.707625 45.9493349,23.1364219 C45.9493349,10.3586875 35.6752783,0 23,0 Z M23,41.1185469 C13.1490566,41.1185469 5.16415094,33.0685469 5.16415094,23.1364219 C5.16415094,13.2051719 13.1491651,5.15429688 23,5.15429688 C32.8508349,5.15429688 40.8376934,13.2051719 40.8376934,23.1364219 C40.8376934,33.0686563 32.8509434,41.1185469 23,41.1185469 Z" id="Shape"></path>
                    <path d="M25.5920566,17.0223594 L23.460217,15.9490625 L23.460217,13.8025781 L24.5361179,13.8025781 L24.5361179,12.7292812 L23.460217,12.7292812 L23.460217,11.6556562 L22.3952736,11.6556562 L22.3952736,12.7292812 L21.3220849,12.7292812 L21.3220849,13.8025781 L22.3952736,13.8025781 L22.3952736,15.9490625 L20.2661462,17.0223594 L20.2661462,21.1011719 L16.0070236,24.5359844 L16.0070236,33.1224687 L21.3330425,33.1224687 L21.3330425,28.8295 C21.3330425,27.9402812 22.0472358,27.2192812 22.9295896,27.2192812 C23.8120519,27.2192812 24.5262453,27.9402812 24.5262453,28.8295 L24.5262453,33.1224687 L29.8477075,33.1224687 L29.8477075,24.5359844 L25.5921651,21.1039062 L25.5921651,17.0223594 L25.5920566,17.0223594 Z" id="Shape"></path>
                </g>
                <path d="M61.32,29.74 L59.62,29.74 C59.6466668,30.3800032 59.7799988,30.9233311 60.02,31.37 C60.2600012,31.8166689 60.579998,32.1766653 60.98,32.45 C61.380002,32.7233347 61.8399974,32.9199994 62.36,33.04 C62.8800026,33.1600006 63.4266638,33.22 64,33.22 C64.5200026,33.22 65.0433307,33.1700005 65.57,33.07 C66.0966693,32.9699995 66.5699979,32.7933346 66.99,32.54 C67.4100021,32.2866654 67.7499987,31.9533354 68.01,31.54 C68.2700013,31.1266646 68.4,30.6066698 68.4,29.98 C68.4,29.4866642 68.3033343,29.073335 68.11,28.74 C67.9166657,28.406665 67.6633349,28.1300011 67.35,27.91 C67.0366651,27.6899989 66.6766687,27.513334 66.27,27.38 C65.8633313,27.246666 65.4466688,27.1333338 65.02,27.04 C64.619998,26.9466662 64.220002,26.8566671 63.82,26.77 C63.419998,26.6833329 63.0600016,26.5766673 62.74,26.45 C62.4199984,26.3233327 62.1566677,26.1633343 61.95,25.97 C61.7433323,25.7766657 61.64,25.5333348 61.64,25.24 C61.64,24.973332 61.706666,24.7566675 61.84,24.59 C61.973334,24.4233325 62.1466656,24.2900005 62.36,24.19 C62.5733344,24.0899995 62.8099987,24.0200002 63.07,23.98 C63.3300013,23.9399998 63.5866654,23.92 63.84,23.92 C64.1200014,23.92 64.3966653,23.9499997 64.67,24.01 C64.9433347,24.0700003 65.1933322,24.166666 65.42,24.3 C65.6466678,24.433334 65.8333326,24.6099989 65.98,24.83 C66.1266674,25.0500011 66.2133332,25.326665 66.24,25.66 L67.94,25.66 C67.8999998,25.0333302 67.7666678,24.5100021 67.54,24.09 C67.3133322,23.6699979 67.0100019,23.3366679 66.63,23.09 C66.2499981,22.8433321 65.8133358,22.6700005 65.32,22.57 C64.8266642,22.4699995 64.2866696,22.42 63.7,22.42 C63.2466644,22.42 62.7900023,22.4766661 62.33,22.59 C61.8699977,22.7033339 61.4566685,22.8766655 61.09,23.11 C60.7233315,23.3433345 60.4233345,23.6466648 60.19,24.02 C59.9566655,24.3933352 59.84,24.8399974 59.84,25.36 C59.84,26.02667 60.006665,26.5466648 60.34,26.92 C60.673335,27.2933352 61.0899975,27.5833323 61.59,27.79 C62.0900025,27.9966677 62.6333304,28.1566661 63.22,28.27 C63.8066696,28.3833339 64.3499975,28.5099993 64.85,28.65 C65.3500025,28.7900007 65.766665,28.9733322 66.1,29.2 C66.433335,29.4266678 66.6,29.7599978 66.6,30.2 C66.6,30.5200016 66.5200008,30.7833323 66.36,30.99 C66.1999992,31.1966677 65.9966679,31.3533328 65.75,31.46 C65.5033321,31.5666672 65.2333348,31.6399998 64.94,31.68 C64.6466652,31.7200002 64.366668,31.74 64.1,31.74 C63.7533316,31.74 63.4166683,31.706667 63.09,31.64 C62.7633317,31.573333 62.4700013,31.4633341 62.21,31.31 C61.9499987,31.1566659 61.7400008,30.9500013 61.58,30.69 C61.4199992,30.4299987 61.3333334,30.1133352 61.32,29.74 Z M72.08,20.8 L72.08,18.72 L70.38,18.72 L70.38,20.8 L72.08,20.8 Z M70.38,22.66 L70.38,33 L72.08,33 L72.08,22.66 L70.38,22.66 Z M74.72,22.66 L74.72,33 L76.42,33 L76.42,26.56 C76.42,26.359999 76.4699995,26.1100015 76.57,25.81 C76.6700005,25.5099985 76.8299989,25.2200014 77.05,24.94 C77.2700011,24.6599986 77.5566649,24.420001 77.91,24.22 C78.2633351,24.019999 78.6866642,23.92 79.18,23.92 C79.5666686,23.92 79.8833321,23.9766661 80.13,24.09 C80.3766679,24.2033339 80.5733326,24.3633323 80.72,24.57 C80.8666674,24.7766677 80.9699997,25.0199986 81.03,25.3 C81.0900003,25.5800014 81.12,25.886665 81.12,26.22 L81.12,33 L82.82,33 L82.82,26.56 C82.82,25.759996 83.0599976,25.1200024 83.54,24.64 C84.0200024,24.1599976 84.6799958,23.92 85.52,23.92 C85.9333354,23.92 86.2699987,23.9799994 86.53,24.1 C86.7900013,24.2200006 86.9933326,24.3833323 87.14,24.59 C87.2866674,24.7966677 87.3866664,25.0399986 87.44,25.32 C87.4933336,25.6000014 87.52,25.8999984 87.52,26.22 L87.52,33 L89.22,33 L89.22,25.42 C89.22,24.886664 89.1366675,24.4300019 88.97,24.05 C88.8033325,23.6699981 88.5700015,23.3600012 88.27,23.12 C87.9699985,22.8799988 87.6100021,22.7033339 87.19,22.59 C86.7699979,22.4766661 86.3000026,22.42 85.78,22.42 C85.0999966,22.42 84.4766695,22.5733318 83.91,22.88 C83.3433305,23.1866682 82.8866684,23.6199972 82.54,24.18 C82.3266656,23.5399968 81.9600026,23.086668 81.44,22.82 C80.9199974,22.553332 80.3400032,22.42 79.7,22.42 C78.2466594,22.42 77.1333372,23.0066608 76.36,24.18 L76.32,24.18 L76.32,22.66 L74.72,22.66 Z M91.84,22.66 L93.54,22.66 L93.54,24.06 L93.58,24.06 C93.8600014,23.4866638 94.299997,23.0700013 94.9,22.81 C95.500003,22.5499987 96.1599964,22.42 96.88,22.42 C97.680004,22.42 98.3766637,22.5666652 98.97,22.86 C99.5633363,23.1533348 100.056665,23.5499975 100.45,24.05 C100.843335,24.5500025 101.139999,25.1266634 101.34,25.78 C101.540001,26.4333366 101.64,27.126663 101.64,27.86 C101.64,28.593337 101.543334,29.2866634 101.35,29.94 C101.156666,30.5933366 100.863335,31.1633309 100.47,31.65 C100.076665,32.1366691 99.5833363,32.5199986 98.99,32.8 C98.3966637,33.0800014 97.7066706,33.22 96.92,33.22 C96.6666654,33.22 96.3833349,33.1933336 96.07,33.14 C95.7566651,33.0866664 95.4466682,33.0000006 95.14,32.88 C94.8333318,32.7599994 94.5433347,32.5966677 94.27,32.39 C93.9966653,32.1833323 93.7666676,31.9266682 93.58,31.62 L93.54,31.62 L93.54,36.94 L91.84,36.94 L91.84,22.66 Z M99.84,27.74 C99.84,27.2599976 99.7766673,26.7900023 99.65,26.33 C99.5233327,25.8699977 99.3300013,25.4600018 99.07,25.1 C98.8099987,24.7399982 98.4766687,24.4533344 98.07,24.24 C97.6633313,24.0266656 97.1866694,23.92 96.64,23.92 C96.0666638,23.92 95.580002,24.0333322 95.18,24.26 C94.779998,24.4866678 94.4533346,24.7833315 94.2,25.15 C93.9466654,25.5166685 93.7633339,25.933331 93.65,26.4 C93.5366661,26.866669 93.48,27.3399976 93.48,27.82 C93.48,28.3266692 93.5399994,28.8166643 93.66,29.29 C93.7800006,29.7633357 93.9699987,30.1799982 94.23,30.54 C94.4900013,30.9000018 94.8266646,31.1899989 95.24,31.41 C95.6533354,31.6300011 96.1533304,31.74 96.74,31.74 C97.3266696,31.74 97.8166647,31.6266678 98.21,31.4 C98.6033353,31.1733322 98.9199988,30.8733352 99.16,30.5 C99.4000012,30.1266648 99.5733328,29.7000024 99.68,29.22 C99.7866672,28.7399976 99.84,28.2466692 99.84,27.74 Z M103.74,18.72 L103.74,33 L105.44,33 L105.44,18.72 L103.74,18.72 Z M115.26,26.84 C115.233333,26.439998 115.143334,26.0600018 114.99,25.7 C114.836666,25.3399982 114.630001,25.0300013 114.37,24.77 C114.109999,24.5099987 113.803335,24.3033341 113.45,24.15 C113.096665,23.9966659 112.706669,23.92 112.28,23.92 C111.839998,23.92 111.443335,23.9966659 111.09,24.15 C110.736665,24.3033341 110.433335,24.513332 110.18,24.78 C109.926665,25.046668 109.726667,25.3566649 109.58,25.71 C109.433333,26.0633351 109.346667,26.439998 109.32,26.84 L115.26,26.84 Z M116.9,29.72 C116.673332,30.8800058 116.173337,31.7533304 115.4,32.34 C114.626663,32.9266696 113.653339,33.22 112.48,33.22 C111.653329,33.22 110.93667,33.086668 110.33,32.82 C109.72333,32.553332 109.213335,32.1800024 108.8,31.7 C108.386665,31.2199976 108.076668,30.64667 107.87,29.98 C107.663332,29.31333 107.546667,28.5866706 107.52,27.8 C107.52,27.0133294 107.639999,26.2933366 107.88,25.64 C108.120001,24.9866634 108.456664,24.4200024 108.89,23.94 C109.323335,23.4599976 109.836664,23.086668 110.43,22.82 C111.023336,22.553332 111.67333,22.42 112.38,22.42 C113.300005,22.42 114.06333,22.6099981 114.67,22.99 C115.27667,23.3700019 115.763331,23.8533304 116.13,24.44 C116.496668,25.0266696 116.749999,25.6666632 116.89,26.36 C117.030001,27.0533368 117.086667,27.7133302 117.06,28.34 L109.32,28.34 C109.306667,28.7933356 109.359999,29.2233313 109.48,29.63 C109.600001,30.0366687 109.793332,30.3966651 110.06,30.71 C110.326668,31.0233349 110.666665,31.2733324 111.08,31.46 C111.493335,31.6466676 111.979997,31.74 112.54,31.74 C113.260004,31.74 113.849998,31.573335 114.31,31.24 C114.770002,30.906665 115.073333,30.4000034 115.22,29.72 L116.9,29.72 Z M67.12,47.3 L69.9,47.3 C69.8599998,46.63333 69.7000014,46.0566691 69.42,45.57 C69.1399986,45.0833309 68.7766689,44.6766683 68.33,44.35 C67.8833311,44.0233317 67.3766695,43.7800008 66.81,43.62 C66.2433305,43.4599992 65.6533364,43.38 65.04,43.38 C64.1999958,43.38 63.4533366,43.5199986 62.8,43.8 C62.1466634,44.0800014 61.5933356,44.4699975 61.14,44.97 C60.6866644,45.4700025 60.3433345,46.0633299 60.11,46.75 C59.8766655,47.4366701 59.76,48.179996 59.76,48.98 C59.76,49.7533372 59.8866654,50.4633301 60.14,51.11 C60.3933346,51.7566699 60.7466644,52.313331 61.2,52.78 C61.6533356,53.246669 62.2033301,53.6099987 62.85,53.87 C63.4966699,54.1300013 64.2066628,54.26 64.98,54.26 C66.3533402,54.26 67.4799956,53.9000036 68.36,53.18 C69.2400044,52.4599964 69.7733324,51.4133402 69.96,50.04 L67.22,50.04 C67.1266662,50.6800032 66.8966685,51.1899981 66.53,51.57 C66.1633315,51.9500019 65.6400034,52.14 64.96,52.14 C64.5199978,52.14 64.1466682,52.040001 63.84,51.84 C63.5333318,51.639999 63.2900009,51.3833349 63.11,51.07 C62.9299991,50.7566651 62.8000004,50.4066686 62.72,50.02 C62.6399996,49.6333314 62.6,49.2533352 62.6,48.88 C62.6,48.4933314 62.6399996,48.1033353 62.72,47.71 C62.8000004,47.3166647 62.9366657,46.9566683 63.13,46.63 C63.3233343,46.3033317 63.5733318,46.0366677 63.88,45.83 C64.1866682,45.6233323 64.5666644,45.52 65.02,45.52 C66.2333394,45.52 66.9333324,46.1133274 67.12,47.3 Z M71.56,39.72 L71.56,54 L74.4,54 L74.4,48.58 C74.4,47.5266614 74.5733316,46.7700023 74.92,46.31 C75.2666684,45.8499977 75.8266628,45.62 76.6,45.62 C77.2800034,45.62 77.753332,45.8299979 78.02,46.25 C78.286668,46.6700021 78.42,47.3066624 78.42,48.16 L78.42,54 L81.26,54 L81.26,47.64 C81.26,46.9999968 81.2033339,46.4166693 81.09,45.89 C80.9766661,45.3633307 80.7800014,44.9166685 80.5,44.55 C80.2199986,44.1833315 79.8366691,43.8966677 79.35,43.69 C78.8633309,43.4833323 78.2400038,43.38 77.48,43.38 C76.946664,43.38 76.4000028,43.5166653 75.84,43.79 C75.2799972,44.0633347 74.8200018,44.499997 74.46,45.1 L74.4,45.1 L74.4,39.72 L71.56,39.72 Z M93.12,54 L93.12,43.66 L90.28,43.66 L90.28,49.08 C90.28,50.1333386 90.1066684,50.8899977 89.76,51.35 C89.4133316,51.8100023 88.8533372,52.04 88.08,52.04 C87.3999966,52.04 86.926668,51.8300021 86.66,51.41 C86.393332,50.9899979 86.26,50.3533376 86.26,49.5 L86.26,43.66 L83.42,43.66 L83.42,50.02 C83.42,50.6600032 83.4766661,51.2433307 83.59,51.77 C83.7033339,52.2966693 83.8999986,52.7433315 84.18,53.11 C84.4600014,53.4766685 84.8433309,53.759999 85.33,53.96 C85.8166691,54.160001 86.4399962,54.26 87.2,54.26 C87.800003,54.26 88.3866638,54.126668 88.96,53.86 C89.5333362,53.593332 89.9999982,53.160003 90.36,52.56 L90.42,52.56 L90.42,54 L93.12,54 Z M95.28,43.66 L95.28,54 L98.12,54 L98.12,49.34 C98.12,48.873331 98.1666662,48.440002 98.26,48.04 C98.3533338,47.639998 98.5099989,47.2900015 98.73,46.99 C98.9500011,46.6899985 99.2399982,46.4533342 99.6,46.28 C99.9600018,46.1066658 100.399997,46.02 100.92,46.02 C101.093334,46.02 101.273332,46.0299999 101.46,46.05 C101.646668,46.0700001 101.806666,46.0933332 101.94,46.12 L101.94,43.48 C101.713332,43.413333 101.506668,43.38 101.32,43.38 C100.959998,43.38 100.613335,43.4333328 100.28,43.54 C99.946665,43.6466672 99.6333348,43.7966657 99.34,43.99 C99.0466652,44.1833343 98.7866678,44.4166653 98.56,44.69 C98.3333322,44.9633347 98.153334,45.2599984 98.02,45.58 L97.98,45.58 L97.98,43.66 L95.28,43.66 Z M110.1,47.3 L112.88,47.3 C112.84,46.63333 112.680001,46.0566691 112.4,45.57 C112.119999,45.0833309 111.756669,44.6766683 111.31,44.35 C110.863331,44.0233317 110.356669,43.7800008 109.79,43.62 C109.22333,43.4599992 108.633336,43.38 108.02,43.38 C107.179996,43.38 106.433337,43.5199986 105.78,43.8 C105.126663,44.0800014 104.573336,44.4699975 104.12,44.97 C103.666664,45.4700025 103.323334,46.0633299 103.09,46.75 C102.856665,47.4366701 102.74,48.179996 102.74,48.98 C102.74,49.7533372 102.866665,50.4633301 103.12,51.11 C103.373335,51.7566699 103.726664,52.313331 104.18,52.78 C104.633336,53.246669 105.18333,53.6099987 105.83,53.87 C106.47667,54.1300013 107.186663,54.26 107.96,54.26 C109.33334,54.26 110.459996,53.9000036 111.34,53.18 C112.220004,52.4599964 112.753332,51.4133402 112.94,50.04 L110.2,50.04 C110.106666,50.6800032 109.876668,51.1899981 109.51,51.57 C109.143331,51.9500019 108.620003,52.14 107.94,52.14 C107.499998,52.14 107.126668,52.040001 106.82,51.84 C106.513332,51.639999 106.270001,51.3833349 106.09,51.07 C105.909999,50.7566651 105.78,50.4066686 105.7,50.02 C105.62,49.6333314 105.58,49.2533352 105.58,48.88 C105.58,48.4933314 105.62,48.1033353 105.7,47.71 C105.78,47.3166647 105.916666,46.9566683 106.11,46.63 C106.303334,46.3033317 106.553332,46.0366677 106.86,45.83 C107.166668,45.6233323 107.546664,45.52 108,45.52 C109.213339,45.52 109.913332,46.1133274 110.1,47.3 Z M114.54,39.72 L114.54,54 L117.38,54 L117.38,48.58 C117.38,47.5266614 117.553332,46.7700023 117.9,46.31 C118.246668,45.8499977 118.806663,45.62 119.58,45.62 C120.260003,45.62 120.733332,45.8299979 121,46.25 C121.266668,46.6700021 121.4,47.3066624 121.4,48.16 L121.4,54 L124.24,54 L124.24,47.64 C124.24,46.9999968 124.183334,46.4166693 124.07,45.89 C123.956666,45.3633307 123.760001,44.9166685 123.48,44.55 C123.199999,44.1833315 122.816669,43.8966677 122.33,43.69 C121.843331,43.4833323 121.220004,43.38 120.46,43.38 C119.926664,43.38 119.380003,43.5166653 118.82,43.79 C118.259997,44.0633347 117.800002,44.499997 117.44,45.1 L117.38,45.1 L117.38,39.72 L114.54,39.72 Z M128.96,43.66 L128.96,40.56 L127.26,40.56 L127.26,43.66 L125.5,43.66 L125.5,45.16 L127.26,45.16 L127.26,51.74 C127.26,52.2200024 127.306666,52.6066652 127.4,52.9 C127.493334,53.1933348 127.636666,53.4199992 127.83,53.58 C128.023334,53.7400008 128.276665,53.8499997 128.59,53.91 C128.903335,53.9700003 129.279998,54 129.72,54 L131.02,54 L131.02,52.5 L130.24,52.5 C129.973332,52.5 129.756667,52.4900001 129.59,52.47 C129.423332,52.4499999 129.293334,52.406667 129.2,52.34 C129.106666,52.273333 129.043333,52.1800006 129.01,52.06 C128.976666,51.9399994 128.96,51.780001 128.96,51.58 L128.96,45.16 L131.02,45.16 L131.02,43.66 L128.96,43.66 Z M134.14,48.84 C134.14,49.4666698 134.223332,50.0233309 134.39,50.51 C134.556667,50.9966691 134.786665,51.4033317 135.08,51.73 C135.373335,52.0566683 135.716665,52.3066658 136.11,52.48 C136.503335,52.6533342 136.919998,52.74 137.36,52.74 C137.800002,52.74 138.216665,52.6533342 138.61,52.48 C139.003335,52.3066658 139.346665,52.0566683 139.64,51.73 C139.933335,51.4033317 140.163332,50.9966691 140.33,50.51 C140.496667,50.0233309 140.58,49.4666698 140.58,48.84 C140.58,48.2133302 140.496667,47.6566691 140.33,47.17 C140.163332,46.6833309 139.933335,46.273335 139.64,45.94 C139.346665,45.606665 139.003335,45.3533342 138.61,45.18 C138.216665,45.0066658 137.800002,44.92 137.36,44.92 C136.919998,44.92 136.503335,45.0066658 136.11,45.18 C135.716665,45.3533342 135.373335,45.606665 135.08,45.94 C134.786665,46.273335 134.556667,46.6833309 134.39,47.17 C134.223332,47.6566691 134.14,48.2133302 134.14,48.84 Z M132.34,48.84 C132.34,48.0799962 132.446666,47.3700033 132.66,46.71 C132.873334,46.0499967 133.193331,45.4766691 133.62,44.99 C134.046669,44.5033309 134.57333,44.1200014 135.2,43.84 C135.82667,43.5599986 136.546663,43.42 137.36,43.42 C138.186671,43.42 138.909997,43.5599986 139.53,43.84 C140.150003,44.1200014 140.673331,44.5033309 141.1,44.99 C141.526669,45.4766691 141.846666,46.0499967 142.06,46.71 C142.273334,47.3700033 142.38,48.0799962 142.38,48.84 C142.38,49.6000038 142.273334,50.3066634 142.06,50.96 C141.846666,51.6133366 141.526669,52.1833309 141.1,52.67 C140.673331,53.1566691 140.150003,53.5366653 139.53,53.81 C138.909997,54.0833347 138.186671,54.22 137.36,54.22 C136.546663,54.22 135.82667,54.0833347 135.2,53.81 C134.57333,53.5366653 134.046669,53.1566691 133.62,52.67 C133.193331,52.1833309 132.873334,51.6133366 132.66,50.96 C132.446666,50.3066634 132.34,49.6000038 132.34,48.84 Z M145.62,48.84 C145.62,49.4666698 145.703332,50.0233309 145.87,50.51 C146.036667,50.9966691 146.266665,51.4033317 146.56,51.73 C146.853335,52.0566683 147.196665,52.3066658 147.59,52.48 C147.983335,52.6533342 148.399998,52.74 148.84,52.74 C149.280002,52.74 149.696665,52.6533342 150.09,52.48 C150.483335,52.3066658 150.826665,52.0566683 151.12,51.73 C151.413335,51.4033317 151.643332,50.9966691 151.81,50.51 C151.976667,50.0233309 152.06,49.4666698 152.06,48.84 C152.06,48.2133302 151.976667,47.6566691 151.81,47.17 C151.643332,46.6833309 151.413335,46.273335 151.12,45.94 C150.826665,45.606665 150.483335,45.3533342 150.09,45.18 C149.696665,45.0066658 149.280002,44.92 148.84,44.92 C148.399998,44.92 147.983335,45.0066658 147.59,45.18 C147.196665,45.3533342 146.853335,45.606665 146.56,45.94 C146.266665,46.273335 146.036667,46.6833309 145.87,47.17 C145.703332,47.6566691 145.62,48.2133302 145.62,48.84 Z M143.82,48.84 C143.82,48.0799962 143.926666,47.3700033 144.14,46.71 C144.353334,46.0499967 144.673331,45.4766691 145.1,44.99 C145.526669,44.5033309 146.05333,44.1200014 146.68,43.84 C147.30667,43.5599986 148.026663,43.42 148.84,43.42 C149.666671,43.42 150.389997,43.5599986 151.01,43.84 C151.630003,44.1200014 152.153331,44.5033309 152.58,44.99 C153.006669,45.4766691 153.326666,46.0499967 153.54,46.71 C153.753334,47.3700033 153.86,48.0799962 153.86,48.84 C153.86,49.6000038 153.753334,50.3066634 153.54,50.96 C153.326666,51.6133366 153.006669,52.1833309 152.58,52.67 C152.153331,53.1566691 151.630003,53.5366653 151.01,53.81 C150.389997,54.0833347 149.666671,54.22 148.84,54.22 C148.026663,54.22 147.30667,54.0833347 146.68,53.81 C146.05333,53.5366653 145.526669,53.1566691 145.1,52.67 C144.673331,52.1833309 144.353334,51.6133366 144.14,50.96 C143.926666,50.3066634 143.82,49.6000038 143.82,48.84 Z M155.96,39.72 L155.96,54 L157.66,54 L157.66,39.72 L155.96,39.72 Z M161.34,50.74 L159.64,50.74 C159.666667,51.3800032 159.799999,51.9233311 160.04,52.37 C160.280001,52.8166689 160.599998,53.1766653 161,53.45 C161.400002,53.7233347 161.859997,53.9199994 162.38,54.04 C162.900003,54.1600006 163.446664,54.22 164.02,54.22 C164.540003,54.22 165.063331,54.1700005 165.59,54.07 C166.116669,53.9699995 166.589998,53.7933346 167.01,53.54 C167.430002,53.2866654 167.769999,52.9533354 168.03,52.54 C168.290001,52.1266646 168.42,51.6066698 168.42,50.98 C168.42,50.4866642 168.323334,50.073335 168.13,49.74 C167.936666,49.406665 167.683335,49.1300011 167.37,48.91 C167.056665,48.6899989 166.696669,48.513334 166.29,48.38 C165.883331,48.246666 165.466669,48.1333338 165.04,48.04 C164.639998,47.9466662 164.240002,47.8566671 163.84,47.77 C163.439998,47.6833329 163.080002,47.5766673 162.76,47.45 C162.439998,47.3233327 162.176668,47.1633343 161.97,46.97 C161.763332,46.7766657 161.66,46.5333348 161.66,46.24 C161.66,45.973332 161.726666,45.7566675 161.86,45.59 C161.993334,45.4233325 162.166666,45.2900005 162.38,45.19 C162.593334,45.0899995 162.829999,45.0200002 163.09,44.98 C163.350001,44.9399998 163.606665,44.92 163.86,44.92 C164.140001,44.92 164.416665,44.9499997 164.69,45.01 C164.963335,45.0700003 165.213332,45.166666 165.44,45.3 C165.666668,45.433334 165.853333,45.6099989 166,45.83 C166.146667,46.0500011 166.233333,46.326665 166.26,46.66 L167.96,46.66 C167.92,46.0333302 167.786668,45.5100021 167.56,45.09 C167.333332,44.6699979 167.030002,44.3366679 166.65,44.09 C166.269998,43.8433321 165.833336,43.6700005 165.34,43.57 C164.846664,43.4699995 164.30667,43.42 163.72,43.42 C163.266664,43.42 162.810002,43.4766661 162.35,43.59 C161.889998,43.7033339 161.476668,43.8766655 161.11,44.11 C160.743331,44.3433345 160.443334,44.6466648 160.21,45.02 C159.976665,45.3933352 159.86,45.8399974 159.86,46.36 C159.86,47.02667 160.026665,47.5466648 160.36,47.92 C160.693335,48.2933352 161.109997,48.5833323 161.61,48.79 C162.110002,48.9966677 162.65333,49.1566661 163.24,49.27 C163.82667,49.3833339 164.369997,49.5099993 164.87,49.65 C165.370002,49.7900007 165.786665,49.9733322 166.12,50.2 C166.453335,50.4266678 166.62,50.7599978 166.62,51.2 C166.62,51.5200016 166.540001,51.7833323 166.38,51.99 C166.219999,52.1966677 166.016668,52.3533328 165.77,52.46 C165.523332,52.5666672 165.253335,52.6399998 164.96,52.68 C164.666665,52.7200002 164.386668,52.74 164.12,52.74 C163.773332,52.74 163.436668,52.706667 163.11,52.64 C162.783332,52.573333 162.490001,52.4633341 162.23,52.31 C161.969999,52.1566659 161.760001,51.9500013 161.6,51.69 C161.439999,51.4299987 161.353333,51.1133352 161.34,50.74 Z" id="simple-churchtools"></path>
            </g>
        </g>
    </g>
</svg>