<?xml version="1.0" encoding="UTF-8"?>
<svg width="156px" height="40px" viewBox="0 0 156 40" version="1.1" xmlns="http://www.w3.org/2000/svg" xmlns:xlink="http://www.w3.org/1999/xlink">
    <!-- Generator: Sketch 43.1 (39012) - http://www.bohemiancoding.com/sketch -->
    <title>logo</title>
    <desc>Created with Sketch.</desc>
    <defs></defs>
    <g id="Page-1" stroke="none" stroke-width="1" fill="none" fill-rule="evenodd">
        <g id="SimpleChurchTools" transform="translate(0.000000, -34.000000)" fill="#2C81EC">
            <g id="logo" transform="translate(0.000000, 34.000000)">
                <path d="M48.32,17.74 L46.62,17.74 C46.6466668,18.3800032 46.7799988,18.9233311 47.02,19.37 C47.2600012,19.8166689 47.579998,20.1766653 47.98,20.45 C48.380002,20.7233347 48.8399974,20.9199994 49.36,21.04 C49.8800026,21.1600006 50.4266638,21.22 51,21.22 C51.5200026,21.22 52.0433307,21.1700005 52.57,21.07 C53.0966693,20.9699995 53.5699979,20.7933346 53.99,20.54 C54.4100021,20.2866654 54.7499987,19.9533354 55.01,19.54 C55.2700013,19.1266646 55.4,18.6066698 55.4,17.98 C55.4,17.4866642 55.3033343,17.073335 55.11,16.74 C54.9166657,16.406665 54.6633349,16.1300011 54.35,15.91 C54.0366651,15.6899989 53.6766687,15.513334 53.27,15.38 C52.8633313,15.246666 52.4466688,15.1333338 52.02,15.04 C51.619998,14.9466662 51.220002,14.8566671 50.82,14.77 C50.419998,14.6833329 50.0600016,14.5766673 49.74,14.45 C49.4199984,14.3233327 49.1566677,14.1633343 48.95,13.97 C48.7433323,13.7766657 48.64,13.5333348 48.64,13.24 C48.64,12.973332 48.706666,12.7566675 48.84,12.59 C48.973334,12.4233325 49.1466656,12.2900005 49.36,12.19 C49.5733344,12.0899995 49.8099987,12.0200002 50.07,11.98 C50.3300013,11.9399998 50.5866654,11.92 50.84,11.92 C51.1200014,11.92 51.3966653,11.9499997 51.67,12.01 C51.9433347,12.0700003 52.1933322,12.166666 52.42,12.3 C52.6466678,12.433334 52.8333326,12.6099989 52.98,12.83 C53.1266674,13.0500011 53.2133332,13.326665 53.24,13.66 L54.94,13.66 C54.8999998,13.0333302 54.7666678,12.5100021 54.54,12.09 C54.3133322,11.6699979 54.0100019,11.3366679 53.63,11.09 C53.2499981,10.8433321 52.8133358,10.6700005 52.32,10.57 C51.8266642,10.4699995 51.2866696,10.42 50.7,10.42 C50.2466644,10.42 49.7900023,10.4766661 49.33,10.59 C48.8699977,10.7033339 48.4566685,10.8766655 48.09,11.11 C47.7233315,11.3433345 47.4233345,11.6466648 47.19,12.02 C46.9566655,12.3933352 46.84,12.8399974 46.84,13.36 C46.84,14.02667 47.006665,14.5466648 47.34,14.92 C47.673335,15.2933352 48.0899975,15.5833323 48.59,15.79 C49.0900025,15.9966677 49.6333304,16.1566661 50.22,16.27 C50.8066696,16.3833339 51.3499975,16.5099993 51.85,16.65 C52.3500025,16.7900007 52.766665,16.9733322 53.1,17.2 C53.433335,17.4266678 53.6,17.7599978 53.6,18.2 C53.6,18.5200016 53.5200008,18.7833323 53.36,18.99 C53.1999992,19.1966677 52.9966679,19.3533328 52.75,19.46 C52.5033321,19.5666672 52.2333348,19.6399998 51.94,19.68 C51.6466652,19.7200002 51.366668,19.74 51.1,19.74 C50.7533316,19.74 50.4166683,19.706667 50.09,19.64 C49.7633317,19.573333 49.4700013,19.4633341 49.21,19.31 C48.9499987,19.1566659 48.7400008,18.9500013 48.58,18.69 C48.4199992,18.4299987 48.3333334,18.1133352 48.32,17.74 Z M59.08,8.8 L59.08,6.72 L57.38,6.72 L57.38,8.8 L59.08,8.8 Z M57.38,10.66 L57.38,21 L59.08,21 L59.08,10.66 L57.38,10.66 Z M61.72,10.66 L61.72,21 L63.42,21 L63.42,14.56 C63.42,14.359999 63.4699995,14.1100015 63.57,13.81 C63.6700005,13.5099985 63.8299989,13.2200014 64.05,12.94 C64.2700011,12.6599986 64.5566649,12.420001 64.91,12.22 C65.2633351,12.019999 65.6866642,11.92 66.18,11.92 C66.5666686,11.92 66.8833321,11.9766661 67.13,12.09 C67.3766679,12.2033339 67.5733326,12.3633323 67.72,12.57 C67.8666674,12.7766677 67.9699997,13.0199986 68.03,13.3 C68.0900003,13.5800014 68.12,13.886665 68.12,14.22 L68.12,21 L69.82,21 L69.82,14.56 C69.82,13.759996 70.0599976,13.1200024 70.54,12.64 C71.0200024,12.1599976 71.6799958,11.92 72.52,11.92 C72.9333354,11.92 73.2699987,11.9799994 73.53,12.1 C73.7900013,12.2200006 73.9933326,12.3833323 74.14,12.59 C74.2866674,12.7966677 74.3866664,13.0399986 74.44,13.32 C74.4933336,13.6000014 74.52,13.8999984 74.52,14.22 L74.52,21 L76.22,21 L76.22,13.42 C76.22,12.886664 76.1366675,12.4300019 75.97,12.05 C75.8033325,11.6699981 75.5700015,11.3600012 75.27,11.12 C74.9699985,10.8799988 74.6100021,10.7033339 74.19,10.59 C73.7699979,10.4766661 73.3000026,10.42 72.78,10.42 C72.0999966,10.42 71.4766695,10.5733318 70.91,10.88 C70.3433305,11.1866682 69.8866684,11.6199972 69.54,12.18 C69.3266656,11.5399968 68.9600026,11.086668 68.44,10.82 C67.9199974,10.553332 67.3400032,10.42 66.7,10.42 C65.2466594,10.42 64.1333372,11.0066608 63.36,12.18 L63.32,12.18 L63.32,10.66 L61.72,10.66 Z M78.84,10.66 L80.54,10.66 L80.54,12.06 L80.58,12.06 C80.8600014,11.4866638 81.299997,11.0700013 81.9,10.81 C82.500003,10.5499987 83.1599964,10.42 83.88,10.42 C84.680004,10.42 85.3766637,10.5666652 85.97,10.86 C86.5633363,11.1533348 87.0566647,11.5499975 87.45,12.05 C87.8433353,12.5500025 88.139999,13.1266634 88.34,13.78 C88.540001,14.4333366 88.64,15.126663 88.64,15.86 C88.64,16.593337 88.5433343,17.2866634 88.35,17.94 C88.1566657,18.5933366 87.8633353,19.1633309 87.47,19.65 C87.0766647,20.1366691 86.5833363,20.5199986 85.99,20.8 C85.3966637,21.0800014 84.7066706,21.22 83.92,21.22 C83.6666654,21.22 83.3833349,21.1933336 83.07,21.14 C82.7566651,21.0866664 82.4466682,21.0000006 82.14,20.88 C81.8333318,20.7599994 81.5433347,20.5966677 81.27,20.39 C80.9966653,20.1833323 80.7666676,19.9266682 80.58,19.62 L80.54,19.62 L80.54,24.94 L78.84,24.94 L78.84,10.66 Z M86.84,15.74 C86.84,15.2599976 86.7766673,14.7900023 86.65,14.33 C86.5233327,13.8699977 86.3300013,13.4600018 86.07,13.1 C85.8099987,12.7399982 85.4766687,12.4533344 85.07,12.24 C84.6633313,12.0266656 84.1866694,11.92 83.64,11.92 C83.0666638,11.92 82.580002,12.0333322 82.18,12.26 C81.779998,12.4866678 81.4533346,12.7833315 81.2,13.15 C80.9466654,13.5166685 80.7633339,13.933331 80.65,14.4 C80.5366661,14.866669 80.48,15.3399976 80.48,15.82 C80.48,16.3266692 80.5399994,16.8166643 80.66,17.29 C80.7800006,17.7633357 80.9699987,18.1799982 81.23,18.54 C81.4900013,18.9000018 81.8266646,19.1899989 82.24,19.41 C82.6533354,19.6300011 83.1533304,19.74 83.74,19.74 C84.3266696,19.74 84.8166647,19.6266678 85.21,19.4 C85.6033353,19.1733322 85.9199988,18.8733352 86.16,18.5 C86.4000012,18.1266648 86.5733328,17.7000024 86.68,17.22 C86.7866672,16.7399976 86.84,16.2466692 86.84,15.74 Z M90.74,6.72 L90.74,21 L92.44,21 L92.44,6.72 L90.74,6.72 Z M102.26,14.84 C102.233333,14.439998 102.143334,14.0600018 101.99,13.7 C101.836666,13.3399982 101.630001,13.0300013 101.37,12.77 C101.109999,12.5099987 100.803335,12.3033341 100.45,12.15 C100.096665,11.9966659 99.7066688,11.92 99.28,11.92 C98.8399978,11.92 98.4433351,11.9966659 98.09,12.15 C97.7366649,12.3033341 97.4333346,12.513332 97.18,12.78 C96.9266654,13.046668 96.7266674,13.3566649 96.58,13.71 C96.4333326,14.0633351 96.3466668,14.439998 96.32,14.84 L102.26,14.84 Z M103.9,17.72 C103.673332,18.8800058 103.173337,19.7533304 102.4,20.34 C101.626663,20.9266696 100.653339,21.22 99.48,21.22 C98.6533292,21.22 97.9366697,21.086668 97.33,20.82 C96.7233303,20.553332 96.2133354,20.1800024 95.8,19.7 C95.3866646,19.2199976 95.0766677,18.64667 94.87,17.98 C94.6633323,17.31333 94.5466668,16.5866706 94.52,15.8 C94.52,15.0133294 94.6399988,14.2933366 94.88,13.64 C95.1200012,12.9866634 95.4566645,12.4200024 95.89,11.94 C96.3233355,11.4599976 96.8366637,11.086668 97.43,10.82 C98.0233363,10.553332 98.6733298,10.42 99.38,10.42 C100.300005,10.42 101.06333,10.6099981 101.67,10.99 C102.27667,11.3700019 102.763331,11.8533304 103.13,12.44 C103.496668,13.0266696 103.749999,13.6666632 103.89,14.36 C104.030001,15.0533368 104.086667,15.7133302 104.06,16.34 L96.32,16.34 C96.3066666,16.7933356 96.3599994,17.2233313 96.48,17.63 C96.6000006,18.0366687 96.793332,18.3966651 97.06,18.71 C97.326668,19.0233349 97.6666646,19.2733324 98.08,19.46 C98.4933354,19.6466676 98.9799972,19.74 99.54,19.74 C100.260004,19.74 100.849998,19.573335 101.31,19.24 C101.770002,18.906665 102.073333,18.4000034 102.22,17.72 L103.9,17.72 Z M54.12,31.3 L56.9,31.3 C56.8599998,30.63333 56.7000014,30.0566691 56.42,29.57 C56.1399986,29.0833309 55.7766689,28.6766683 55.33,28.35 C54.8833311,28.0233317 54.3766695,27.7800008 53.81,27.62 C53.2433305,27.4599992 52.6533364,27.38 52.04,27.38 C51.1999958,27.38 50.4533366,27.5199986 49.8,27.8 C49.1466634,28.0800014 48.5933356,28.4699975 48.14,28.97 C47.6866644,29.4700025 47.3433345,30.0633299 47.11,30.75 C46.8766655,31.4366701 46.76,32.179996 46.76,32.98 C46.76,33.7533372 46.8866654,34.4633301 47.14,35.11 C47.3933346,35.7566699 47.7466644,36.313331 48.2,36.78 C48.6533356,37.246669 49.2033301,37.6099987 49.85,37.87 C50.4966699,38.1300013 51.2066628,38.26 51.98,38.26 C53.3533402,38.26 54.4799956,37.9000036 55.36,37.18 C56.2400044,36.4599964 56.7733324,35.4133402 56.96,34.04 L54.22,34.04 C54.1266662,34.6800032 53.8966685,35.1899981 53.53,35.57 C53.1633315,35.9500019 52.6400034,36.14 51.96,36.14 C51.5199978,36.14 51.1466682,36.040001 50.84,35.84 C50.5333318,35.639999 50.2900009,35.3833349 50.11,35.07 C49.9299991,34.7566651 49.8000004,34.4066686 49.72,34.02 C49.6399996,33.6333314 49.6,33.2533352 49.6,32.88 C49.6,32.4933314 49.6399996,32.1033353 49.72,31.71 C49.8000004,31.3166647 49.9366657,30.9566683 50.13,30.63 C50.3233343,30.3033317 50.5733318,30.0366677 50.88,29.83 C51.1866682,29.6233323 51.5666644,29.52 52.02,29.52 C53.2333394,29.52 53.9333324,30.1133274 54.12,31.3 Z M58.56,23.72 L58.56,38 L61.4,38 L61.4,32.58 C61.4,31.5266614 61.5733316,30.7700023 61.92,30.31 C62.2666684,29.8499977 62.8266628,29.62 63.6,29.62 C64.2800034,29.62 64.753332,29.8299979 65.02,30.25 C65.286668,30.6700021 65.42,31.3066624 65.42,32.16 L65.42,38 L68.26,38 L68.26,31.64 C68.26,30.9999968 68.2033339,30.4166693 68.09,29.89 C67.9766661,29.3633307 67.7800014,28.9166685 67.5,28.55 C67.2199986,28.1833315 66.8366691,27.8966677 66.35,27.69 C65.8633309,27.4833323 65.2400038,27.38 64.48,27.38 C63.946664,27.38 63.4000028,27.5166653 62.84,27.79 C62.2799972,28.0633347 61.8200018,28.499997 61.46,29.1 L61.4,29.1 L61.4,23.72 L58.56,23.72 Z M80.12,38 L80.12,27.66 L77.28,27.66 L77.28,33.08 C77.28,34.1333386 77.1066684,34.8899977 76.76,35.35 C76.4133316,35.8100023 75.8533372,36.04 75.08,36.04 C74.3999966,36.04 73.926668,35.8300021 73.66,35.41 C73.393332,34.9899979 73.26,34.3533376 73.26,33.5 L73.26,27.66 L70.42,27.66 L70.42,34.02 C70.42,34.6600032 70.4766661,35.2433307 70.59,35.77 C70.7033339,36.2966693 70.8999986,36.7433315 71.18,37.11 C71.4600014,37.4766685 71.8433309,37.759999 72.33,37.96 C72.8166691,38.160001 73.4399962,38.26 74.2,38.26 C74.800003,38.26 75.3866638,38.126668 75.96,37.86 C76.5333362,37.593332 76.9999982,37.160003 77.36,36.56 L77.42,36.56 L77.42,38 L80.12,38 Z M82.28,27.66 L82.28,38 L85.12,38 L85.12,33.34 C85.12,32.873331 85.1666662,32.440002 85.26,32.04 C85.3533338,31.639998 85.5099989,31.2900015 85.73,30.99 C85.9500011,30.6899985 86.2399982,30.4533342 86.6,30.28 C86.9600018,30.1066658 87.3999974,30.02 87.92,30.02 C88.0933342,30.02 88.2733324,30.0299999 88.46,30.05 C88.6466676,30.0700001 88.806666,30.0933332 88.94,30.12 L88.94,27.48 C88.7133322,27.413333 88.5066676,27.38 88.32,27.38 C87.9599982,27.38 87.613335,27.4333328 87.28,27.54 C86.946665,27.6466672 86.6333348,27.7966657 86.34,27.99 C86.0466652,28.1833343 85.7866678,28.4166653 85.56,28.69 C85.3333322,28.9633347 85.153334,29.2599984 85.02,29.58 L84.98,29.58 L84.98,27.66 L82.28,27.66 Z M97.1,31.3 L99.88,31.3 C99.8399998,30.63333 99.6800014,30.0566691 99.4,29.57 C99.1199986,29.0833309 98.7566689,28.6766683 98.31,28.35 C97.8633311,28.0233317 97.3566695,27.7800008 96.79,27.62 C96.2233305,27.4599992 95.6333364,27.38 95.02,27.38 C94.1799958,27.38 93.4333366,27.5199986 92.78,27.8 C92.1266634,28.0800014 91.5733356,28.4699975 91.12,28.97 C90.6666644,29.4700025 90.3233345,30.0633299 90.09,30.75 C89.8566655,31.4366701 89.74,32.179996 89.74,32.98 C89.74,33.7533372 89.8666654,34.4633301 90.12,35.11 C90.3733346,35.7566699 90.7266644,36.313331 91.18,36.78 C91.6333356,37.246669 92.1833301,37.6099987 92.83,37.87 C93.4766699,38.1300013 94.1866628,38.26 94.96,38.26 C96.3333402,38.26 97.4599956,37.9000036 98.34,37.18 C99.2200044,36.4599964 99.7533324,35.4133402 99.94,34.04 L97.2,34.04 C97.1066662,34.6800032 96.8766685,35.1899981 96.51,35.57 C96.1433315,35.9500019 95.6200034,36.14 94.94,36.14 C94.4999978,36.14 94.1266682,36.040001 93.82,35.84 C93.5133318,35.639999 93.2700009,35.3833349 93.09,35.07 C92.9099991,34.7566651 92.7800004,34.4066686 92.7,34.02 C92.6199996,33.6333314 92.58,33.2533352 92.58,32.88 C92.58,32.4933314 92.6199996,32.1033353 92.7,31.71 C92.7800004,31.3166647 92.9166657,30.9566683 93.11,30.63 C93.3033343,30.3033317 93.5533318,30.0366677 93.86,29.83 C94.1666682,29.6233323 94.5466644,29.52 95,29.52 C96.2133394,29.52 96.9133324,30.1133274 97.1,31.3 Z M101.54,23.72 L101.54,38 L104.38,38 L104.38,32.58 C104.38,31.5266614 104.553332,30.7700023 104.9,30.31 C105.246668,29.8499977 105.806663,29.62 106.58,29.62 C107.260003,29.62 107.733332,29.8299979 108,30.25 C108.266668,30.6700021 108.4,31.3066624 108.4,32.16 L108.4,38 L111.24,38 L111.24,31.64 C111.24,30.9999968 111.183334,30.4166693 111.07,29.89 C110.956666,29.3633307 110.760001,28.9166685 110.48,28.55 C110.199999,28.1833315 109.816669,27.8966677 109.33,27.69 C108.843331,27.4833323 108.220004,27.38 107.46,27.38 C106.926664,27.38 106.380003,27.5166653 105.82,27.79 C105.259997,28.0633347 104.800002,28.499997 104.44,29.1 L104.38,29.1 L104.38,23.72 L101.54,23.72 Z M115.96,27.66 L115.96,24.56 L114.26,24.56 L114.26,27.66 L112.5,27.66 L112.5,29.16 L114.26,29.16 L114.26,35.74 C114.26,36.2200024 114.306666,36.6066652 114.4,36.9 C114.493334,37.1933348 114.636666,37.4199992 114.83,37.58 C115.023334,37.7400008 115.276665,37.8499997 115.59,37.91 C115.903335,37.9700003 116.279998,38 116.72,38 L118.02,38 L118.02,36.5 L117.24,36.5 C116.973332,36.5 116.756667,36.4900001 116.59,36.47 C116.423333,36.4499999 116.293334,36.406667 116.2,36.34 C116.106666,36.273333 116.043334,36.1800006 116.01,36.06 C115.976667,35.9399994 115.96,35.780001 115.96,35.58 L115.96,29.16 L118.02,29.16 L118.02,27.66 L115.96,27.66 Z M121.14,32.84 C121.14,33.4666698 121.223332,34.0233309 121.39,34.51 C121.556668,34.9966691 121.786665,35.4033317 122.08,35.73 C122.373335,36.0566683 122.716665,36.3066658 123.11,36.48 C123.503335,36.6533342 123.919998,36.74 124.36,36.74 C124.800002,36.74 125.216665,36.6533342 125.61,36.48 C126.003335,36.3066658 126.346665,36.0566683 126.64,35.73 C126.933335,35.4033317 127.163333,34.9966691 127.33,34.51 C127.496668,34.0233309 127.58,33.4666698 127.58,32.84 C127.58,32.2133302 127.496668,31.6566691 127.33,31.17 C127.163333,30.6833309 126.933335,30.273335 126.64,29.94 C126.346665,29.606665 126.003335,29.3533342 125.61,29.18 C125.216665,29.0066658 124.800002,28.92 124.36,28.92 C123.919998,28.92 123.503335,29.0066658 123.11,29.18 C122.716665,29.3533342 122.373335,29.606665 122.08,29.94 C121.786665,30.273335 121.556668,30.6833309 121.39,31.17 C121.223332,31.6566691 121.14,32.2133302 121.14,32.84 Z M119.34,32.84 C119.34,32.0799962 119.446666,31.3700033 119.66,30.71 C119.873334,30.0499967 120.193331,29.4766691 120.62,28.99 C121.046669,28.5033309 121.57333,28.1200014 122.2,27.84 C122.82667,27.5599986 123.546663,27.42 124.36,27.42 C125.186671,27.42 125.909997,27.5599986 126.53,27.84 C127.150003,28.1200014 127.673331,28.5033309 128.1,28.99 C128.526669,29.4766691 128.846666,30.0499967 129.06,30.71 C129.273334,31.3700033 129.38,32.0799962 129.38,32.84 C129.38,33.6000038 129.273334,34.3066634 129.06,34.96 C128.846666,35.6133366 128.526669,36.1833309 128.1,36.67 C127.673331,37.1566691 127.150003,37.5366653 126.53,37.81 C125.909997,38.0833347 125.186671,38.22 124.36,38.22 C123.546663,38.22 122.82667,38.0833347 122.2,37.81 C121.57333,37.5366653 121.046669,37.1566691 120.62,36.67 C120.193331,36.1833309 119.873334,35.6133366 119.66,34.96 C119.446666,34.3066634 119.34,33.6000038 119.34,32.84 Z M132.62,32.84 C132.62,33.4666698 132.703333,34.0233309 132.87,34.51 C133.036668,34.9966691 133.266665,35.4033317 133.56,35.73 C133.853335,36.0566683 134.196665,36.3066658 134.59,36.48 C134.983335,36.6533342 135.399998,36.74 135.84,36.74 C136.280002,36.74 136.696665,36.6533342 137.09,36.48 C137.483335,36.3066658 137.826665,36.0566683 138.12,35.73 C138.413335,35.4033317 138.643332,34.9966691 138.81,34.51 C138.976668,34.0233309 139.06,33.4666698 139.06,32.84 C139.06,32.2133302 138.976668,31.6566691 138.81,31.17 C138.643332,30.6833309 138.413335,30.273335 138.12,29.94 C137.826665,29.606665 137.483335,29.3533342 137.09,29.18 C136.696665,29.0066658 136.280002,28.92 135.84,28.92 C135.399998,28.92 134.983335,29.0066658 134.59,29.18 C134.196665,29.3533342 133.853335,29.606665 133.56,29.94 C133.266665,30.273335 133.036668,30.6833309 132.87,31.17 C132.703333,31.6566691 132.62,32.2133302 132.62,32.84 Z M130.82,32.84 C130.82,32.0799962 130.926666,31.3700033 131.14,30.71 C131.353334,30.0499967 131.673331,29.4766691 132.1,28.99 C132.526669,28.5033309 133.05333,28.1200014 133.68,27.84 C134.30667,27.5599986 135.026663,27.42 135.84,27.42 C136.666671,27.42 137.389997,27.5599986 138.01,27.84 C138.630003,28.1200014 139.153331,28.5033309 139.58,28.99 C140.006669,29.4766691 140.326666,30.0499967 140.54,30.71 C140.753334,31.3700033 140.86,32.0799962 140.86,32.84 C140.86,33.6000038 140.753334,34.3066634 140.54,34.96 C140.326666,35.6133366 140.006669,36.1833309 139.58,36.67 C139.153331,37.1566691 138.630003,37.5366653 138.01,37.81 C137.389997,38.0833347 136.666671,38.22 135.84,38.22 C135.026663,38.22 134.30667,38.0833347 133.68,37.81 C133.05333,37.5366653 132.526669,37.1566691 132.1,36.67 C131.673331,36.1833309 131.353334,35.6133366 131.14,34.96 C130.926666,34.3066634 130.82,33.6000038 130.82,32.84 Z M142.96,23.72 L142.96,38 L144.66,38 L144.66,23.72 L142.96,23.72 Z M148.34,34.74 L146.64,34.74 C146.666667,35.3800032 146.799999,35.9233311 147.04,36.37 C147.280001,36.8166689 147.599998,37.1766653 148,37.45 C148.400002,37.7233347 148.859997,37.9199994 149.38,38.04 C149.900003,38.1600006 150.446664,38.22 151.02,38.22 C151.540003,38.22 152.063331,38.1700005 152.59,38.07 C153.116669,37.9699995 153.589998,37.7933346 154.01,37.54 C154.430002,37.2866654 154.769999,36.9533354 155.03,36.54 C155.290001,36.1266646 155.42,35.6066698 155.42,34.98 C155.42,34.4866642 155.323334,34.073335 155.13,33.74 C154.936666,33.406665 154.683335,33.1300011 154.37,32.91 C154.056665,32.6899989 153.696669,32.513334 153.29,32.38 C152.883331,32.246666 152.466669,32.1333338 152.04,32.04 C151.639998,31.9466662 151.240002,31.8566671 150.84,31.77 C150.439998,31.6833329 150.080002,31.5766673 149.76,31.45 C149.439998,31.3233327 149.176668,31.1633343 148.97,30.97 C148.763332,30.7766657 148.66,30.5333348 148.66,30.24 C148.66,29.973332 148.726666,29.7566675 148.86,29.59 C148.993334,29.4233325 149.166666,29.2900005 149.38,29.19 C149.593334,29.0899995 149.829999,29.0200002 150.09,28.98 C150.350001,28.9399998 150.606665,28.92 150.86,28.92 C151.140001,28.92 151.416665,28.9499997 151.69,29.01 C151.963335,29.0700003 152.213332,29.166666 152.44,29.3 C152.666668,29.433334 152.853333,29.6099989 153,29.83 C153.146667,30.0500011 153.233333,30.326665 153.26,30.66 L154.96,30.66 C154.92,30.0333302 154.786668,29.5100021 154.56,29.09 C154.333332,28.6699979 154.030002,28.3366679 153.65,28.09 C153.269998,27.8433321 152.833336,27.6700005 152.34,27.57 C151.846664,27.4699995 151.30667,27.42 150.72,27.42 C150.266664,27.42 149.810002,27.4766661 149.35,27.59 C148.889998,27.7033339 148.476669,27.8766655 148.11,28.11 C147.743332,28.3433345 147.443335,28.6466648 147.21,29.02 C146.976665,29.3933352 146.86,29.8399974 146.86,30.36 C146.86,31.02667 147.026665,31.5466648 147.36,31.92 C147.693335,32.2933352 148.109998,32.5833323 148.61,32.79 C149.110003,32.9966677 149.65333,33.1566661 150.24,33.27 C150.82667,33.3833339 151.369998,33.5099993 151.87,33.65 C152.370002,33.7900007 152.786665,33.9733322 153.12,34.2 C153.453335,34.4266678 153.62,34.7599978 153.62,35.2 C153.62,35.5200016 153.540001,35.7833323 153.38,35.99 C153.219999,36.1966677 153.016668,36.3533328 152.77,36.46 C152.523332,36.5666672 152.253335,36.6399998 151.96,36.68 C151.666665,36.7200002 151.386668,36.74 151.12,36.74 C150.773332,36.74 150.436668,36.706667 150.11,36.64 C149.783332,36.573333 149.490001,36.4633341 149.23,36.31 C148.969999,36.1566659 148.760001,35.9500013 148.6,35.69 C148.439999,35.4299987 148.353333,35.1133352 148.34,34.74 Z" id="simple-churchtools"></path>
                <path d="M27.5278689,14.1921697 L27.5278689,12.5231321 L20.852459,8.10818923 L20.852459,3.37474715 L22.5704918,3.37474715 L22.5704918,1.80867863 L20.852459,1.80867863 L20.852459,0.0599021207 L19.2786885,0.0599021207 L19.2786885,1.80867863 L17.5606557,1.80867863 L17.5606557,3.37474715 L19.2786885,3.37474715 L19.2786885,8.02146819 L12.4721311,12.5231974 L12.4721311,14.1922349 L0,12.0924633 L0,36.6275367 L20,39.994584 L40,36.6275367 L40,12.0924633 L27.5278689,14.1921697 Z M36.852459,33.9782708 L20,36.81677 L3.14754098,33.9782708 L3.14754098,15.7988254 L12.4721311,17.3699837 L12.4721311,20.0272104 L12.4590164,20.0272104 L7.46229508,22.5198695 L7.46229508,32.5035563 L12.4721311,32.5035563 L17.5147541,32.5035563 L17.5147541,25.0190538 L22.4852459,25.0190538 L22.4852459,32.5035563 L27.5278689,32.5035563 L32.5377049,32.5035563 L32.5377049,22.5198695 L27.5278689,20.0272104 L27.5278689,17.3688091 L36.852459,15.7988254 L36.852459,33.9782708 Z" id="Bible_x5F_Church_1_" fill-rule="nonzero"></path>
            </g>
        </g>
    </g>
</svg>