<?xml version="1.0" encoding="UTF-8"?>
<svg width="268px" height="324px" viewBox="0 0 268 324" version="1.1" xmlns="http://www.w3.org/2000/svg" xmlns:xlink="http://www.w3.org/1999/xlink">
    <!-- Generator: Sketch 43.1 (39012) - http://www.bohemiancoding.com/sketch -->
    <title>prayer</title>
    <desc>Created with Sketch.</desc>
    <defs></defs>
    <g id="Page-1" stroke="none" stroke-width="1" fill="none" fill-rule="evenodd">
        <g id="siteicons" transform="translate(-668.000000, -78.000000)" fill-rule="nonzero" fill="#FFFFFF">
            <g id="prayer-siteicon" transform="translate(562.000000, 0.000000)">
                <g id="prayer" transform="translate(106.000000, 78.000000)">
                    <path d="M133.860727,0 C59.9273437,0 0,59.9324062 0,133.860727 C0,235.522688 133.860727,324 133.860727,324 C133.860727,324 267.721453,235.522687 267.721453,133.860727 C267.721453,59.9324062 207.794109,0 133.860727,0 Z M133.860727,237.900164 C76.4013516,237.900164 29.8263516,191.325164 29.8263516,133.860727 C29.8263516,76.4013516 76.4019844,29.8212891 133.860727,29.8212891 C191.319469,29.8212891 237.905859,76.4013516 237.905859,133.860727 C237.905859,191.325797 191.320102,237.900164 133.860727,237.900164 Z" id="Shape"></path>
                    <path d="M175.836788,111.336847 C171.220896,108.250146 164.891742,108.962824 160.804459,113.045388 L155.659957,118.194609 L155.565562,118.100215 C155.844026,114.107326 154.848164,110.104998 152.729007,106.631279 C154.036371,106.928622 155.386213,107.112691 156.778532,107.112691 C166.944823,107.112691 175.213784,98.8437305 175.213784,88.6774395 C175.213784,78.5111484 166.944823,70.2421875 156.778532,70.2421875 C146.616961,70.2421875 138.348,78.5111484 138.348,88.6774395 C138.348,92.0662031 139.329703,95.2001016 140.92969,97.9328232 C133.802903,96.1582061 125.972877,98.4708721 121.09268,104.54988 L99.1365117,131.589193 C95.8987793,135.62456 94.4356641,140.688826 95.006751,145.852207 C95.5731182,151.020308 98.1076113,155.64564 102.142978,158.878652 C102.652708,159.284549 103.190757,159.624369 103.747685,159.916992 L98.4946289,159.916992 C91.986126,159.916992 86.6953125,165.212525 86.6953125,171.716309 C86.6953125,178.224812 91.986126,183.515625 98.4946289,183.515625 L144.04943,183.515625 C144.143824,183.515625 144.681873,183.468428 144.780987,183.463708 C145.177444,183.440109 145.569182,183.407071 145.932601,183.336275 C146.211064,183.289078 146.475369,183.218282 146.791591,183.128607 C147.183328,183.024773 147.560906,182.91622 148.056478,182.717991 C148.117834,182.689673 148.52373,182.496164 148.580367,182.472565 C149.014582,182.264897 149.434638,182.04307 150.189794,181.52862 C150.647607,181.207679 151.081822,180.853699 151.412203,180.518599 C151.4594,180.476121 151.723705,180.197657 151.761463,180.15518 C152.049366,179.862557 152.32783,179.560494 152.577976,179.220674 C152.648771,179.126279 152.903637,178.710943 152.960273,178.611829 C153.281215,178.116258 153.559679,177.606527 153.937257,176.672021 C154.121326,176.18117 154.286517,175.680879 154.39507,175.166429 C154.418669,175.057875 154.494185,174.571743 154.503624,174.463189 C154.555541,174.132809 154.593299,173.802428 154.616897,173.439009 C154.635776,173.264379 154.645216,173.085029 154.645216,172.919839 C154.645216,172.797126 154.583859,172.108046 154.57442,171.985333 C154.56498,171.848461 154.498904,171.244336 154.475306,171.107464 C154.409229,170.725166 154.310115,170.366467 154.22988,170.097442 C154.135485,169.757622 154.036371,169.422521 153.899499,169.054383 C153.781506,168.76176 153.654073,168.492735 153.507762,168.204832 C153.337852,167.874451 153.163222,167.539351 152.903637,167.128734 C152.85172,167.053219 152.535498,166.623724 152.478861,166.548208 C152.223996,166.213107 151.959691,165.887446 151.704826,165.618422 C151.64347,165.557065 151.11486,165.066214 151.053504,165.009577 C150.883594,164.844387 150.42578,164.452649 150.227552,164.315777 L133.491401,152.582537 C133.198778,152.374869 133.099664,152.096405 133.071346,151.898177 C133.047747,151.695229 133.061906,151.397886 133.297893,151.109982 L143.166841,138.961406 L146.937902,142.732468 C149.127855,144.922421 152.124882,146.14483 155.254061,146.14483 C155.386213,146.14483 155.523085,146.14483 155.659957,146.14011 C159.039281,146.272263 162.102384,145.016815 164.377292,142.737188 L177.653883,129.460597 C180.145898,126.968581 181.382467,123.513741 181.037927,119.988105 C180.688667,116.467189 178.796057,113.314412 175.836788,111.336847" id="Shape"></path>
                </g>
            </g>
        </g>
    </g>
</svg>