<?xml version="1.0" encoding="UTF-8"?>
<svg width="268px" height="324px" viewBox="0 0 268 324" version="1.1" xmlns="http://www.w3.org/2000/svg" xmlns:xlink="http://www.w3.org/1999/xlink">
    <!-- Generator: Sketch 43.1 (39012) - http://www.bohemiancoding.com/sketch -->
    <title>service</title>
    <desc>Created with Sketch.</desc>
    <defs></defs>
    <g id="Page-1" stroke="none" stroke-width="1" fill="none" fill-rule="evenodd">
        <g id="siteicons" transform="translate(-1230.000000, -78.000000)" fill-rule="nonzero" fill="#FFFFFF">
            <g id="planner-siteicon" transform="translate(1124.000000, 0.000000)">
                <g id="service" transform="translate(106.000000, 78.000000)">
                    <path d="M133.860727,0 C59.9273437,0 0,59.9324062 0,133.860727 C0,235.522688 133.860727,324 133.860727,324 C133.860727,324 267.721453,235.522687 267.721453,133.860727 C267.721453,59.9324062 207.794109,0 133.860727,0 Z M133.860727,237.900164 C76.4013516,237.900164 29.8263516,191.325164 29.8263516,133.860727 C29.8263516,76.4013516 76.4019844,29.8212891 133.860727,29.8212891 C191.319469,29.8212891 237.905859,76.4013516 237.905859,133.860727 C237.905859,191.325797 191.320102,237.900164 133.860727,237.900164 Z" id="Shape-Copy"></path>
                    <g id="Group-2" transform="translate(86.062500, 51.257812)">
                        <path d="M77.6440524,41.2608132 L18.3862651,41.2608132 L18.3862651,128.191992 L77.48687,128.191992 L77.48687,41.2608132 L77.6440524,41.2608132 Z M61.768624,80.7893022 L51.866129,80.7893022 L51.866129,108.50649 L44.007006,108.50649 L44.007006,80.7893022 L34.1045111,80.7893022 L34.1045111,72.9151012 L44.007006,72.9151012 L44.007006,62.993608 L51.866129,62.993608 L51.866129,72.9151012 L61.768624,72.9151012 L61.768624,80.7893022 Z" id="Shape"></path>
                        <path d="M91.6332913,23.465119 L49.9799395,23.465119 L49.9799395,18.8980824 C49.9799395,18.4256303 49.5083921,8.50413707 58.3106099,5.35445668 C59.0965222,6.14187678 60.3539819,6.77181286 61.4542591,6.77181286 C63.1832661,7.08678089 64.7550907,5.82690874 64.9122732,4.09458452 C65.2266381,2.3622603 63.9691784,0.787420099 62.2401714,0.62993608 C60.6683468,0.47245206 58.1534274,1.88980824 57.68188,3.46464844 C47.3078377,7.24426491 47.9365675,18.8980824 47.9365675,19.0555664 L47.9365675,23.622603 L4.55420867,23.622603 C2.35365423,23.622603 0.624647177,29.2920277 0.624647177,31.496804 C0.624647177,33.7015803 2.35365423,35.4339045 4.55420867,35.4339045 L8.64095262,35.4339045 L8.64095262,133.861417 C8.64095262,136.066193 10.3699597,137.956001 12.5705141,137.956001 L83.9313508,137.956001 C86.1319052,137.956001 87.5465474,136.066193 87.5465474,133.861417 L87.5465474,35.2764205 L91.7904738,35.2764205 C93.9910282,35.2764205 95.7200353,33.5440962 95.7200353,31.33932 C95.5628528,29.1345437 93.8338458,23.465119 91.6332913,23.465119 Z M83.4598034,134.018901 L12.5705141,134.018901 L12.5705141,35.2764205 L83.4598034,35.2764205 L83.4598034,134.018901 Z" id="Shape"></path>
                    </g>
                </g>
            </g>
        </g>
    </g>
</svg>