<?xml version="1.0" encoding="UTF-8"?>
<svg width="268px" height="324px" viewBox="0 0 268 324" version="1.1" xmlns="http://www.w3.org/2000/svg" xmlns:xlink="http://www.w3.org/1999/xlink">
    <!-- Generator: Sketch 43.1 (39012) - http://www.bohemiancoding.com/sketch -->
    <title>websites</title>
    <desc>Created with Sketch.</desc>
    <defs></defs>
    <g id="Page-1" stroke="none" stroke-width="1" fill="none" fill-rule="evenodd">
        <g id="siteicons" transform="translate(-2475.000000, -78.000000)" fill-rule="nonzero" fill="#FFFFFF">
            <g id="sites-siteicon" transform="translate(2369.000000, 0.000000)">
                <g id="websites" transform="translate(106.000000, 78.000000)">
                    <path d="M133.902492,0 C59.9691094,0 0.041765625,59.9324062 0.041765625,133.860727 C0.041765625,235.522688 133.902492,324 133.902492,324 C133.902492,324 267.763219,235.522687 267.763219,133.860727 C267.763219,59.9324062 207.835875,0 133.902492,0 Z M133.902492,237.900164 C76.4431172,237.900164 29.8681172,191.325164 29.8681172,133.860727 C29.8681172,76.4013516 76.44375,29.8212891 133.902492,29.8212891 C191.361234,29.8212891 237.947625,76.4013516 237.947625,133.860727 C237.947625,191.325797 191.361867,237.900164 133.902492,237.900164 Z" id="Shape-Copy-3"></path>
                    <g id="Website" transform="translate(77.203125, 81.000000)">
                        <path d="M0.543823242,27.945 L0.543823242,96.879375 C0.543823242,100.5075 3.43894043,103.41 7.05783691,103.41 L106.215601,103.41 C109.834497,103.41 112.729614,100.5075 112.729614,96.879375 L112.729614,27.945 L0.543823242,27.945 L0.543823242,27.945 Z M85.226001,65.6775 C84.8641113,66.7659375 83.7784424,67.4915625 82.6927734,67.4915625 L77.6263184,67.4915625 C77.2644287,67.4915625 76.5406494,67.854375 76.5406494,68.58 L76.5406494,82.366875 C76.5406494,85.995 73.6455322,88.8975 70.0266357,88.8975 L42.8849121,88.8975 C39.2660156,88.8975 36.3708984,85.995 36.3708984,82.366875 L36.3708984,68.58 C36.3708984,68.2171875 36.0090088,67.4915625 35.2852295,67.4915625 L30.5806641,67.4915625 C29.4949951,67.4915625 28.4093262,66.7659375 28.0474365,65.6775 C27.6855469,64.5890625 28.0474365,63.500625 28.7712158,62.775 L52.294043,40.6434375 C54.8272705,38.4665625 58.8080566,38.4665625 60.9793945,40.6434375 L70.750415,50.0765625 L70.750415,43.90875 C70.750415,42.4575 71.836084,41.00625 73.6455322,41.00625 C75.0930908,41.00625 76.5406494,42.0946875 76.5406494,43.90875 L76.5406494,55.1559375 L84.8641113,62.775 C85.5878906,63.500625 85.9497803,64.5890625 85.226001,65.6775 Z" id="Shape"></path>
                        <path d="M106.215601,0.37125 L7.05783691,0.37125 C3.43894043,0.37125 0.543823242,3.27375 0.543823242,6.901875 L0.543823242,22.5028125 L112.729614,22.5028125 L112.729614,6.901875 C112.729614,3.27375 109.834497,0.37125 106.215601,0.37125 Z M49.0370361,14.158125 L11.038623,14.158125 C9.59106445,14.158125 8.50539551,13.0696875 8.50539551,11.255625 C8.50539551,9.4415625 9.59106445,8.7159375 11.038623,8.7159375 L49.0370361,8.7159375 C50.4845947,8.7159375 51.9321533,9.804375 51.9321533,11.6184375 C51.9321533,13.4325 50.8464844,14.158125 49.0370361,14.158125 Z M86.3116699,14.158125 L79.073877,14.158125 C77.6263184,14.158125 76.1787598,13.0696875 76.1787598,11.255625 C76.1787598,9.4415625 77.2644287,8.353125 79.073877,8.353125 L86.3116699,8.353125 C87.7592285,8.353125 89.2067871,9.4415625 89.2067871,11.255625 C89.2067871,13.0696875 88.1211182,14.158125 86.3116699,14.158125 Z M101.872925,14.158125 L94.6351318,14.158125 C93.1875732,14.158125 91.7400146,13.0696875 91.7400146,11.255625 C91.7400146,9.4415625 92.8256836,8.353125 94.6351318,8.353125 L101.872925,8.353125 C103.320483,8.353125 104.768042,9.4415625 104.768042,11.255625 C104.768042,13.0696875 103.320483,14.158125 101.872925,14.158125 Z" id="Shape"></path>
                    </g>
                </g>
            </g>
        </g>
    </g>
</svg>