<?xml version="1.0" encoding="UTF-8"?>
<svg width="268px" height="324px" viewBox="0 0 268 324" version="1.1" xmlns="http://www.w3.org/2000/svg" xmlns:xlink="http://www.w3.org/1999/xlink">
    <!-- Generator: Sketch 43.1 (39012) - http://www.bohemiancoding.com/sketch -->
    <title>Slides</title>
    <desc>Created with Sketch.</desc>
    <defs></defs>
    <g id="Page-1" stroke="none" stroke-width="1" fill="none" fill-rule="evenodd">
        <g id="siteicons" transform="translate(-1853.000000, -956.000000)" fill-rule="nonzero" fill="#E3E3E3">
            <g id="slides-siteicon" transform="translate(1747.000000, 0.000000)">
                <g id="Slides" transform="translate(106.000000, 956.000000)">
                    <path d="M133.860727,0 C59.9273437,0 0,59.9324062 0,133.860727 C0,235.522688 133.860727,324 133.860727,324 C133.860727,324 267.721453,235.522687 267.721453,133.860727 C267.721453,59.9324062 207.794109,0 133.860727,0 Z M133.860727,237.900164 C76.4013516,237.900164 29.8263516,191.325164 29.8263516,133.860727 C29.8263516,76.4013516 76.4019844,29.8212891 133.860727,29.8212891 C191.319469,29.8212891 237.905859,76.4013516 237.905859,133.860727 C237.905859,191.325797 191.320102,237.900164 133.860727,237.900164 Z" id="Shape-Copy-2"></path>
                    <path d="M130.047688,65.8125 L130.047688,78.5505772 L75.3046875,78.5505772 L75.3046875,171.057651 L127.597892,171.057651 L104.749318,193.861379 L109.950536,199.052053 L134.270458,174.779959 L158.591853,199.052053 L163.79307,193.861379 L140.943025,171.057651 L192.147431,171.057651 L192.147431,78.5505772 L137.404431,78.5505772 L137.404431,65.8125 L130.047688,65.8125 Z M82.6614311,163.71582 L184.789217,163.71582 L184.789217,85.8924085 L82.6614311,85.8924085 L82.6614311,163.71582 Z M96.9423417,105.092765 L145.349714,105.092765 L145.349714,98.4851174 L96.9423417,98.4851174 L96.9423417,105.092765 Z M96.9423417,120.266862 L166.095731,120.266862 L166.095731,113.659214 L96.9423417,113.659214 L96.9423417,120.266862 Z M96.9423417,135.438022 L115.6064,135.438022 L115.6064,128.830374 L96.9423417,128.830374 L96.9423417,135.438022 Z M96.9423417,150.610651 L143.535541,150.610651 L143.535541,144.003003 L96.9423417,144.003003 L96.9423417,150.610651 Z" id="Shape"></path>
                </g>
            </g>
        </g>
    </g>
</svg>