<?xml version="1.0" encoding="UTF-8"?>
<svg width="268px" height="324px" viewBox="0 0 268 324" version="1.1" xmlns="http://www.w3.org/2000/svg" xmlns:xlink="http://www.w3.org/1999/xlink">
    <!-- Generator: Sketch 43.1 (39012) - http://www.bohemiancoding.com/sketch -->
    <title>tools</title>
    <desc>Created with Sketch.</desc>
    <defs></defs>
    <g id="Page-1" stroke="none" stroke-width="1" fill="none" fill-rule="evenodd">
        <g id="siteicons" transform="translate(-106.000000, -78.000000)" fill-rule="nonzero" fill="#FFFFFF">
            <g id="tools-siteicon">
                <g id="tools" transform="translate(106.000000, 78.000000)">
                    <path d="M134,0 C60.1527264,0 0.295179245,59.9324062 0.295179245,133.860727 C0.295179245,235.522688 134,324 134,324 C134,324 267.704821,235.522687 267.704821,133.860727 C267.704821,59.9324062 207.847274,0 134,0 Z M134,237.900164 C76.6075472,237.900164 30.0867925,191.325164 30.0867925,133.860727 C30.0867925,76.4013516 76.6081792,29.8212891 134,29.8212891 C191.391821,29.8212891 237.923953,76.4013516 237.923953,133.860727 C237.923953,191.325797 191.392453,237.900164 134,237.900164 Z" id="Shape"></path>
                    <path d="M149.101547,98.4865078 L136.681264,92.2767188 L136.681264,79.8577734 L142.949557,79.8577734 L142.949557,73.6479844 L136.681264,73.6479844 L136.681264,67.4362969 L130.476811,67.4362969 L130.476811,73.6479844 L124.224321,73.6479844 L124.224321,79.8577734 L130.476811,79.8577734 L130.476811,92.2767188 L118.07233,98.4865078 L118.07233,122.085352 L93.2583113,141.958195 L93.2583113,191.637141 L124.28816,191.637141 L124.28816,166.79925 C124.28816,161.654484 128.449113,157.482984 133.589783,157.482984 C138.731085,157.482984 142.892038,161.654484 142.892038,166.79925 L142.892038,191.637141 L173.89534,191.637141 L173.89534,141.958195 L149.102179,122.101172 L149.102179,98.4865078 L149.101547,98.4865078 Z" id="Shape"></path>
                </g>
            </g>
        </g>
    </g>
</svg>